<?xml version="1.0" encoding="UTF-8"?>
<svg id="Capa_1" data-name="Capa 1" xmlns="http://www.w3.org/2000/svg" viewBox="0 0 462.25 113.82">
  <defs>
    <style>
      .cls-1 {
        fill: #d2ab36;
        stroke-width: 0px;
      }
    </style>
  </defs>
  <path class="cls-1" d="M21.38,57.04c1.52,1.62,3,3.2,4.59,4.9,5.18-5.09,10.33-10.15,15.44-15.17,3.51,3.56,6.92,7.02,10.27,10.41-4.94,4.97-9.97,10.03-14.92,15.01,10.25,10.48,20.36,20.84,30.44,31.15-3.26,3.3-6.74,6.82-10.35,10.48C37.81,94.99,18.74,76.15,0,57.63,18.91,38.37,37.78,19.16,56.6,0c3.84,3.84,7.37,7.37,11.07,11.06-15.44,15.34-30.95,30.75-46.28,45.98ZM56.77,107.9c1.7-1.67,3.27-3.21,4.61-4.53-10.04-10.32-20.13-20.69-30.24-31.08,4.88-4.98,9.9-10.09,14.86-15.15-1.5-1.51-3.06-3.08-5.03-5.06-4.97,5.16-9.94,10.33-15.01,15.6-3.52-3.67-6.89-7.19-10.36-10.81,15.32-15.2,30.84-30.59,46.26-45.88-1.71-1.67-3.35-3.27-5.28-5.16C39.74,22.98,22.8,40.24,5.81,57.55c16.86,16.65,33.97,33.56,50.97,50.35Z"/>
  <path class="cls-1" d="M57.24,61.77c5.23,5.38,10.28,10.57,15.34,15.77,1.73-1.84,3.27-3.48,4.88-5.19-10.15-10.01-20.49-20.21-30.68-30.26,8.72-8.78,17.38-17.5,25.96-26.14,13.73,13.69,27.51,27.43,41.23,41.12-3.35,3.37-6.8,6.83-10.54,10.59-10.02-10.28-20.1-20.61-30.18-30.94-1.9,1.99-3.43,3.59-4.79,5,9.92,10.18,20.02,20.55,29.97,30.77-8.39,8.54-16.94,17.24-25.61,26.06-8.82-8.71-17.53-17.32-26.18-25.86,3.48-3.59,6.9-7.12,10.59-10.94ZM52.39,72.7c6.76,6.66,13.56,13.36,20.39,20.08,6.81-6.89,13.49-13.65,20.21-20.45-10.19-10.08-20.48-20.25-30.79-30.44,3.66-3.59,7.2-7.05,10.98-10.76,10.12,10.21,20.31,20.49,30.41,30.69,1.67-1.67,3.22-3.23,4.51-4.52-11.77-11.83-23.62-23.73-35.39-35.55-6.67,6.7-13.41,13.47-20.2,20.31,10.24,10.1,20.58,20.29,30.66,30.23-3.53,3.68-6.95,7.25-10.8,11.28-5.07-5.36-10.07-10.65-15.12-15.99-1.76,1.86-3.25,3.44-4.85,5.13Z"/>
  <g>
    <path class="cls-1" d="M279.5,55.54c-.42,5.03-.84,9.95-1.26,14.93h-40.12v-1.85c.4-.1.79-.21,1.19-.31,3.41-.85,4.45-2.12,4.47-5.7.04-8.41.03-16.82.03-25.24,0-3.86,0-7.71,0-11.57,0-4.35-.93-5.48-5.16-6.35-.17-.04-.34-.11-.54-.18v-1.9h38.57v11.71c-.33.04-.6.05-.87.1-1.42.25-2.01-.32-2.55-1.72-.72-1.86-1.83-3.64-3.12-5.17-1.16-1.39-3.02-1.78-4.84-1.8-4.51-.03-9.02-.02-13.52-.01-.13,0-.25.08-.45.15v20.88c3.77-.17,7.48-.17,11.15-.55,2.28-.23,3.39-2.05,3.96-4.18.58-2.18.6-2.17,2.99-1.88v16.33q-2.41.4-2.9-1.7c-.87-3.73-2.32-4.9-6.12-4.92-2.97-.02-5.94,0-8.92,0v22.62c1.29,0,2.35,0,3.41,0,3.62-.01,7.25,0,10.87-.05,3.52-.04,6.15-1.66,7.81-4.73.83-1.55,1.48-3.2,2.18-4.81,1.08-2.47.27-2.22,3.71-2.09Z"/>
    <path class="cls-1" d="M206.44,31.03c-2.53.29-2.5.28-3.28-1.82-.48-1.3-1-2.61-1.65-3.83-2.86-5.36-9.61-7.42-15.04-4.64-4.88,2.49-6.11,9.38-2.1,13.27,2.06,2,4.66,3.5,7.14,5.02,2.93,1.8,6.06,3.25,8.97,5.07,3.59,2.25,6.52,5.14,7.36,9.54,1.6,8.37-4.25,16.2-12.85,17.48-5.21.78-10.28,0-15.35-.97-1.32-.25-2.66-.45-3.96-.79-.37-.1-.91-.58-.91-.89-.07-4.23-.06-8.45-.06-12.68,0-.08.07-.17.11-.25,2.21-.44,2.13-.4,2.88,1.54.8,2.07,1.56,4.21,2.74,6.06,2.98,4.69,9.74,6.53,14.83,4.26,5.79-2.59,7.49-11.09,2.78-15.49-2.36-2.21-5.37-3.77-8.23-5.38-3.56-2-7.29-3.69-10.33-6.52-4.74-4.42-5.72-11.31-2.21-16.76,2.4-3.74,6.04-5.7,10.31-6.52,4.26-.81,8.52-.42,12.74.42,2.09.41,4.15.97,6.1,1.43v12.46Z"/>
    <path class="cls-1" d="M141.77,20.65v21.43c1.18,0,2.32,0,3.46,0,1.86,0,3.72,0,5.58-.03,2.56-.04,4.29-1.29,5.18-3.69.21-.57.43-1.13.62-1.7q.63-1.98,2.99-1.67v17.06h-2.7c-.2-.76-.38-1.61-.63-2.44-.83-2.79-2.61-4.18-5.5-4.22-2.96-.04-5.92,0-9.05,0,0,1.44,0,2.73,0,4.01,0,3.72,0,7.44,0,11.15,0,.46,0,.93.01,1.39.13,4.48,1.09,5.6,5.48,6.43.27.05.53.13.86.21v1.86h-19.42v-1.78c.77-.22,1.56-.44,2.35-.67,1.8-.51,2.83-1.71,3.08-3.55.09-.64.13-1.3.13-1.94,0-12.32,0-24.63,0-36.95,0-.56-.02-1.12-.09-1.67-.26-2.1-1.31-3.53-3.46-4.02-.63-.14-1.26-.32-1.96-.5v-1.99h37.75v11.93c-.65,0-1.27.12-1.82-.04-.47-.14-1.02-.5-1.25-.92-.8-1.51-1.38-3.14-2.24-4.62-1.01-1.73-2.68-2.94-4.63-3.01-4.86-.18-9.73-.06-14.73-.06Z"/>
    <path class="cls-1" d="M402.14,68.61v1.84h-16.92v-1.69c.1-.08.16-.16.23-.18,3.96-.95,4.68-1.74,4.68-5.79,0-5.99.07-11.99-.22-17.98-.39-8.24-7.73-9.12-12.16-5.59-1.52,1.21-2.63,2.95-3.84,4.51-.27.35-.26.97-.26,1.47-.01,5.86,0,11.71,0,17.57,0,.46.02.93.06,1.39.27,2.8,1,3.6,3.77,4.18.36.08.72.18,1.15.28v1.78h-16.58c-.28-1.12-.25-1.89,1.29-2.16,2.37-.41,3.15-1.31,3.39-3.74.17-1.75.13-3.53.13-5.29,0-5.72,0-11.44-.03-17.15,0-.79-.04-1.58-.14-2.36-.28-2.19-1.19-3.35-3.34-3.72-1.44-.25-1.79-.85-1.36-2.28,3.76-.22,7.59-.44,11.53-.66v6.7c.12.14.25.27.37.41.21-.38.35-.83.64-1.14,2.39-2.5,4.9-4.84,8.36-5.82,4.99-1.42,9.93.02,12.14,4.02,1.06,1.92,1.67,4.29,1.77,6.48.26,5.94.12,11.9.15,17.85,0,.51,0,1.02,0,1.53.08,3.67.87,4.61,4.48,5.37.22.05.44.11.71.17Z"/>
    <path class="cls-1" d="M331.32,50.96c-.04,4.28.51,8.21,2.8,11.65,3.23,4.86,10.13,5.88,15.34,2.28,1.43-.99,2.65-2.29,4.07-3.54.61.54,1.29,1.14,2.07,1.84-2.96,4.07-6.43,7.11-11.49,8.03-6.68,1.22-13.32-1.45-16.78-6.88-1.66-2.6-2.5-5.48-2.79-8.53-.5-5.13-.05-10.09,2.36-14.77,4.22-8.22,15.67-11.07,23.19-5.69,3.4,2.43,4.87,6.02,5.57,9.96.32,1.81.32,3.67.48,5.65h-24.79ZM348.4,47.88c.3-2.81-.25-5.37-1.29-7.83-1.81-4.23-5.97-5.62-10.15-3.67-3.61,1.68-5.81,8.19-5.38,11.49h16.83Z"/>
    <path class="cls-1" d="M435.29,69.63v-10.04c1.5-.61,2.17-.03,2.73,1.35,2.29,5.61,5.82,7.91,11.45,7.68,2.99-.13,5.45-1.86,6.19-4.36.81-2.72-.1-5.48-2.71-7.15-1.94-1.24-4.12-2.11-6.19-3.15-2.28-1.15-4.63-2.17-6.8-3.49-5.8-3.52-5.34-11.73.14-15.31,2.32-1.52,4.88-2.25,7.62-2.41,4.08-.24,8.07.34,11.99,1.4.36.1.9.5.9.77.07,2.87.04,5.73.04,8.52-1.68.58-2.4.05-2.98-1.39-2.11-5.2-5.85-7.29-10.81-6.27-2.74.57-4.48,2.12-4.85,4.55-.38,2.52.86,4.36,2.93,5.55,1.88,1.09,3.92,1.9,5.88,2.86,2.21,1.08,4.51,2.01,6.57,3.33,4.61,2.94,6.05,7.74,3.84,12.6-1.36,3-3.86,4.81-6.93,5.86-3.01,1.03-6.13,1.17-9.23.78-3.26-.42-6.49-1.09-9.78-1.66Z"/>
    <path class="cls-1" d="M281.03,33.65h17.32v1.74c-.49.1-.94.18-1.38.28-2.46.57-3.56,2.25-2.75,4.66,1.36,4.04,2.88,8.03,4.38,12.03,1.22,3.26,2.52,6.49,3.79,9.73.13.33.31.65.59,1.24.91-2.13,1.74-4.01,2.52-5.91,1.97-4.81,3.92-9.62,5.87-14.44.23-.56.38-1.14.55-1.72.89-3.03-.12-4.89-3.18-5.59-1.22-.28-1.52-.82-1.14-2.01h14.43c.35,1.1.12,1.74-1.07,2.07-1.51.42-2.58,1.49-3.25,2.87-1.7,3.51-3.38,7.02-4.97,10.57-3.09,6.9-6.13,13.83-9.15,20.75-.36.82-.78,1.19-1.74,1.18-2.83-.03-2.82.01-3.84-2.53-3.74-9.3-7.47-18.61-11.24-27.9-.95-2.34-1.98-4.66-4.92-5.21-.32-.06-.46-1-.81-1.82Z"/>
    <path class="cls-1" d="M411.72,37.24h-5.97c-.44-1.15-.18-1.73.98-2.13,4.14-1.41,6.11-4.6,6.91-8.7.2-1.05.43-2.09.65-3.21h4.31v10.31h11.82v3.64h-11.76c0,.66,0,1.15,0,1.64,0,6.92-.02,13.85.03,20.77.01,1.33.22,2.69.53,3.99.52,2.14,2.03,3.23,4.23,3.37,2.54.17,4.6-.88,6.57-2.52.54.71,1.03,1.36,1.52,2.01-3.75,3.61-7.92,5.7-13.17,4.72-3.51-.65-5.77-2.98-6.33-6.52-.2-1.28-.31-2.59-.32-3.88-.03-7.25-.02-14.5-.02-21.75,0-.51,0-1.01,0-1.74Z"/>
  </g>
  <g>
    <path class="cls-1" d="M132.62,95.99c.56-.32,1.2-.48,1.91-.48.77,0,1.46.18,2.07.54.61.36,1.09.87,1.45,1.53.35.66.53,1.42.53,2.29s-.18,1.63-.53,2.3c-.35.67-.84,1.2-1.45,1.57s-1.3.56-2.06.56-1.38-.16-1.94-.48c-.55-.32-.97-.73-1.25-1.23v1.57h-1.41v-11.5h1.41v4.57c.29-.51.71-.92,1.27-1.24ZM136.74,98.2c-.26-.48-.61-.84-1.05-1.09-.44-.25-.93-.37-1.45-.37s-1,.13-1.44.38c-.44.25-.79.62-1.06,1.1-.26.48-.4,1.04-.4,1.67s.13,1.21.4,1.69c.26.48.62.85,1.06,1.1.44.25.92.38,1.44.38s1.01-.13,1.45-.38c.44-.25.79-.62,1.05-1.1.26-.48.39-1.05.39-1.7s-.13-1.2-.39-1.68Z"/>
    <path class="cls-1" d="M151.89,95.65l2.64,6.87,2.66-6.87h1.46l-5.13,12.53h-1.48l1.69-4.1-3.44-8.43h1.59Z"/>
    <path class="cls-1" d="M192.59,93.33v1.1h-4.71v3.72h3.82v1.1h-3.82v4.91h-1.41v-10.84h6.12Z"/>
    <path class="cls-1" d="M212.91,100.39h-6.81c.04.84.32,1.5.85,1.99.52.49,1.16.73,1.92.73.61,0,1.12-.14,1.53-.43.41-.29.7-.67.86-1.14h1.52c-.23.82-.68,1.48-1.37,2-.68.51-1.53.77-2.55.77-.81,0-1.53-.18-2.17-.54-.64-.36-1.14-.88-1.5-1.55-.36-.67-.54-1.44-.54-2.32s.18-1.65.53-2.32c.35-.66.85-1.17,1.48-1.53.64-.36,1.37-.54,2.2-.54s1.52.18,2.14.53c.62.35,1.1.83,1.44,1.45.34.61.51,1.3.51,2.07,0,.26-.02.54-.05.84ZM211.14,97.93c-.24-.4-.56-.7-.97-.91-.41-.21-.86-.31-1.36-.31-.73,0-1.34.24-1.85.71s-.79,1.12-.84,1.95h5.38c0-.56-.12-1.04-.36-1.44Z"/>
    <path class="cls-1" d="M227.12,92.66v11.5h-1.41v-11.5h1.41Z"/>
    <path class="cls-1" d="M240.46,93.98c-.19-.19-.28-.42-.28-.68s.09-.5.28-.68.41-.28.68-.28.48.09.66.28c.18.19.27.42.27.68s-.09.5-.27.68c-.18.19-.4.28-.66.28s-.5-.09-.68-.28ZM241.83,95.65v8.52h-1.41v-8.52h1.41Z"/>
    <path class="cls-1" d="M256.37,103.97c-.51-.22-.92-.53-1.22-.93-.3-.4-.47-.86-.5-1.38h1.46c.04.45.24.81.6,1.09.36.28.83.42,1.41.42.55,0,.98-.12,1.28-.37.3-.24.46-.56.46-.96,0-.37-.17-.65-.5-.83-.33-.18-.84-.36-1.54-.54-.63-.17-1.15-.33-1.54-.5-.39-.17-.73-.41-1.01-.74-.28-.33-.42-.76-.42-1.3,0-.45.12-.85.37-1.23.25-.37.61-.67,1.08-.89.47-.22,1.02-.33,1.64-.33.94,0,1.71.24,2.29.71s.89,1.13.93,1.96h-1.41c-.03-.47-.21-.84-.54-1.12-.33-.28-.76-.42-1.31-.42-.52,0-.92.11-1.22.34-.3.23-.44.53-.44.9,0,.29.09.53.28.71.19.18.41.32.68.42s.65.22,1.15.37c.62.17,1.12.33,1.49.49.37.16.69.4.96.71.27.31.4.73.4,1.24,0,.48-.13.9-.38,1.28s-.61.67-1.08.89c-.47.22-1.01.33-1.63.33s-1.24-.11-1.75-.33Z"/>
    <path class="cls-1" d="M280.09,95.9c.52.27.92.69,1.22,1.24.3.55.44,1.22.44,2.01v5.02h-1.4v-4.82c0-.85-.21-1.5-.64-1.95-.43-.45-1.01-.68-1.74-.68s-1.34.23-1.78.7-.66,1.15-.66,2.04v4.71h-1.41v-11.5h1.41v4.2c.28-.44.67-.77,1.16-1.01s1.04-.36,1.66-.36c.64,0,1.22.14,1.74.41Z"/>
    <path class="cls-1" d="M294.95,97.58c.35-.66.84-1.17,1.45-1.53.62-.36,1.3-.54,2.06-.54s1.39.16,1.94.48c.55.32.96.73,1.23,1.21v-1.55h1.43v8.52h-1.43v-1.59c-.28.5-.7.91-1.25,1.24-.55.33-1.2.49-1.94.49s-1.44-.19-2.05-.56-1.09-.9-1.45-1.57c-.35-.67-.53-1.44-.53-2.3s.18-1.63.53-2.29ZM301.25,98.21c-.26-.48-.61-.84-1.05-1.1-.44-.25-.93-.38-1.45-.38s-1.01.12-1.45.37c-.44.25-.78.61-1.04,1.09s-.39,1.04-.39,1.68.13,1.22.39,1.7c.26.48.61.85,1.04,1.1.43.25.92.38,1.45.38s1.01-.13,1.45-.38c.44-.25.79-.62,1.05-1.1.26-.48.39-1.04.39-1.69s-.13-1.2-.39-1.68Z"/>
    <path class="cls-1" d="M333.37,103.9c-.57-.25-1.01-.61-1.33-1.06s-.49-.97-.5-1.56h1.51c.05.52.26.96.64,1.31s.91.54,1.6.54,1.19-.17,1.59-.52c.39-.35.59-.79.59-1.33,0-.41-.11-.75-.34-1.01-.23-.26-.51-.46-.85-.59-.34-.13-.8-.28-1.38-.43-.71-.19-1.29-.37-1.72-.56-.43-.19-.8-.48-1.1-.88-.31-.4-.46-.94-.46-1.61,0-.59.15-1.11.45-1.57.3-.46.72-.81,1.27-1.06s1.17-.37,1.87-.37c1.02,0,1.85.25,2.5.76.65.51,1.01,1.18,1.1,2.02h-1.55c-.05-.45-.27-.83-.65-1.14-.38-.32-.89-.47-1.53-.47-.59,0-1.07.16-1.45.47-.37.31-.56.75-.56,1.32,0,.39.11.71.33.96.22.25.5.44.82.57.33.13.78.28,1.38.44.72.2,1.29.39,1.73.58.44.19.81.49,1.12.89.31.4.47.94.47,1.62,0,.53-.14,1.03-.42,1.49-.28.47-.69.84-1.24,1.13-.55.29-1.2.43-1.94.43s-1.36-.13-1.92-.38Z"/>
    <path class="cls-1" d="M351.86,97.58c.35-.66.84-1.17,1.45-1.53.62-.36,1.3-.54,2.06-.54s1.39.16,1.94.48c.55.32.96.73,1.23,1.21v-1.55h1.43v8.52h-1.43v-1.59c-.28.5-.7.91-1.25,1.24-.55.33-1.2.49-1.94.49s-1.44-.19-2.05-.56-1.09-.9-1.45-1.57c-.35-.67-.53-1.44-.53-2.3s.18-1.63.53-2.29ZM358.16,98.21c-.26-.48-.61-.84-1.05-1.1-.44-.25-.93-.38-1.45-.38s-1.01.12-1.45.37c-.44.25-.78.61-1.04,1.09s-.39,1.04-.39,1.68.13,1.22.39,1.7c.26.48.61.85,1.04,1.1.43.25.92.38,1.45.38s1.01-.13,1.45-.38c.44-.25.79-.62,1.05-1.1.26-.48.39-1.04.39-1.69s-.13-1.2-.39-1.68Z"/>
    <path class="cls-1" d="M379.92,96.43c.64.63.96,1.53.96,2.71v5.02h-1.4v-4.82c0-.85-.21-1.5-.64-1.95-.43-.45-1.01-.68-1.74-.68s-1.34.23-1.78.7-.66,1.15-.66,2.04v4.71h-1.41v-8.52h1.41v1.21c.28-.44.66-.77,1.14-1.01.48-.24,1.01-.36,1.59-.36,1.04,0,1.88.31,2.52.94Z"/>
    <path class="cls-1" d="M395.81,96.81v5.02c0,.42.09.71.26.88.18.17.48.26.92.26h1.04v1.2h-1.27c-.79,0-1.38-.18-1.77-.54-.39-.36-.59-.96-.59-1.79v-5.02h-1.1v-1.17h1.1v-2.15h1.42v2.15h2.22v1.17h-2.22Z"/>
    <path class="cls-1" d="M410.63,97.58c.35-.66.84-1.17,1.45-1.53.62-.36,1.3-.54,2.06-.54s1.39.16,1.94.48c.55.32.96.73,1.23,1.21v-1.55h1.43v8.52h-1.43v-1.59c-.28.5-.7.91-1.25,1.24-.55.33-1.2.49-1.94.49s-1.44-.19-2.05-.56-1.09-.9-1.45-1.57c-.35-.67-.53-1.44-.53-2.3s.18-1.63.53-2.29ZM416.92,98.21c-.26-.48-.61-.84-1.05-1.1-.44-.25-.93-.38-1.45-.38s-1.01.12-1.45.37c-.44.25-.78.61-1.04,1.09s-.39,1.04-.39,1.68.13,1.22.39,1.7c.26.48.61.85,1.04,1.1.43.25.92.38,1.45.38s1.01-.13,1.45-.38c.44-.25.79-.62,1.05-1.1.26-.48.39-1.04.39-1.69s-.13-1.2-.39-1.68Z"/>
    <path class="cls-1" d="M438.69,96.43c.64.63.96,1.53.96,2.71v5.02h-1.4v-4.82c0-.85-.21-1.5-.64-1.95-.43-.45-1.01-.68-1.74-.68s-1.34.23-1.78.7-.66,1.15-.66,2.04v4.71h-1.41v-8.52h1.41v1.21c.28-.44.66-.77,1.14-1.01.48-.24,1.01-.36,1.59-.36,1.04,0,1.88.31,2.52.94Z"/>
    <path class="cls-1" d="M452.85,97.58c.35-.66.84-1.17,1.45-1.53.62-.36,1.3-.54,2.06-.54s1.39.16,1.94.48c.55.32.96.73,1.23,1.21v-1.55h1.43v8.52h-1.43v-1.59c-.28.5-.7.91-1.25,1.24-.55.33-1.2.49-1.94.49s-1.44-.19-2.05-.56-1.09-.9-1.45-1.57c-.35-.67-.53-1.44-.53-2.3s.18-1.63.53-2.29ZM459.15,98.21c-.26-.48-.61-.84-1.05-1.1-.44-.25-.93-.38-1.45-.38s-1.01.12-1.45.37c-.44.25-.78.61-1.04,1.09s-.39,1.04-.39,1.68.13,1.22.39,1.7c.26.48.61.85,1.04,1.1.43.25.92.38,1.45.38s1.01-.13,1.45-.38c.44-.25.79-.62,1.05-1.1.26-.48.39-1.04.39-1.69s-.13-1.2-.39-1.68Z"/>
  </g>
</svg>